# xmcd
# Track frame offsets:
# 150
# 12542
# 28415
# 40307
# 54930
# 68907
# 83237
# 96412
# 108730
# 123677
# 138090
# 151182
# 165157
# 177667
# 189465
# 208107
# 221897
# 235447
#
# Disc length: 3357 seconds
# Revision: 0
# Processed by: cddbd v1.4PL0 Copyright (c) Steve Scherf et al.
# Submitted via: VisiTrax 2.9.5.180 - For more info visit www.synapsa.com
#
DISCID=0b0d1b12
DTITLE=Kentucky - Leaving this town
DYEAR=1997
DGENRE=Svensk
TTITLE0=Faster than the speed of sence
TTITLE1=Långt innan solen går ner
TTITLE2=Jag är på väg
TTITLE3=Leaving this town
TTITLE4=Nordvästra Jämtland
TTITLE5=Guld och gröna skogar
TTITLE6=Don't you forget
TTITLE7=En viktig vän
TTITLE8=Min tid med dej
TTITLE9=One of a kind
TTITLE10=There's a man in the shadow
TTITLE11=Jorden är platt
TTITLE12=Att va med dej e kanon
TTITLE13=From time to time
TTITLE14=Tårar i min själ
TTITLE15=Tänk att man aldrig lär sig
TTITLE16=Tidsmaskin
TTITLE17=Some reason for love
EXTD=
EXTT0=
EXTT1=
EXTT2=
EXTT3=
EXTT4=
EXTT5=
EXTT6=
EXTT7=
EXTT8=
EXTT9=
EXTT10=
EXTT11=
EXTT12=
EXTT13=
EXTT14=
EXTT15=
EXTT16=
EXTT17=
PLAYORDER=
